<svg width="40" height="40" viewBox="0 0 40 40" fill="none" xmlns="http://www.w3.org/2000/svg">
<path fill-rule="evenodd" clip-rule="evenodd" d="M34.4267 34.424C35.296 33.552 35.9787 32.504 36.424 31.3546C36.8507 30.2506 37.144 28.992 37.2293 27.1466C37.3147 25.2986 37.336 24.7066 37.336 20C37.336 15.2933 37.3147 14.7013 37.2293 12.8533C37.144 11.008 36.8507 9.74929 36.424 8.64529C35.9885 7.48887 35.306 6.4414 34.424 5.57596C33.5584 4.69409 32.511 4.01156 31.3547 3.57596C30.2507 3.14929 28.992 2.85596 27.1467 2.77063C25.2987 2.68529 24.7067 2.66663 20 2.66663C15.2933 2.66663 14.7013 2.68529 12.8533 2.77329C11.008 2.85329 9.74932 3.14663 8.64532 3.57596C7.48949 4.01256 6.44225 4.69495 5.57599 5.57596C4.69498 6.44221 4.01259 7.48946 3.57599 8.64529C3.14932 9.74929 2.85599 11.008 2.77066 12.8533C2.68532 14.7013 2.66666 15.2933 2.66666 20C2.66666 24.7066 2.68532 25.2986 2.77332 27.1466C2.85332 28.992 3.14666 30.2506 3.57599 31.3546C4.01332 32.512 4.69599 33.5573 5.57599 34.424C6.44266 35.304 7.49066 35.9866 8.64532 36.424C9.74932 36.8506 11.008 37.144 12.8533 37.2293C14.7013 37.312 15.2933 37.3333 20 37.3333C24.7067 37.3333 25.2987 37.312 27.1467 37.2266C28.992 37.1466 30.2507 36.8533 31.3547 36.424C32.5059 35.9784 33.5514 35.2971 34.424 34.424H34.4267ZM5.33332 17.96V22.04C5.32799 24.2293 5.32799 24.7973 5.38666 26.04C5.45599 27.6026 5.54132 28.7493 5.80266 29.6133C6.05332 30.4453 6.33332 31.2933 7.25066 32.312C8.16799 33.3333 9.05066 33.7946 10.176 34.136C11.304 34.4746 12.72 34.5466 13.9493 34.6026C15.3413 34.6666 15.896 34.6666 18.8187 34.6666H21.9733C24.2187 34.6693 24.784 34.672 26.0427 34.6133C27.6027 34.5413 28.7493 34.456 29.616 34.1973C30.4453 33.9466 31.2933 33.664 32.312 32.7493C33.3333 31.832 33.7947 30.9466 34.136 29.8213C34.4747 28.696 34.5493 27.28 34.6053 26.0506C34.6667 24.6586 34.6667 24.1066 34.6667 21.192V18.8186C34.6667 15.896 34.6667 15.344 34.6053 13.9493C34.5493 12.72 34.4747 11.304 34.136 10.1786C33.7973 9.05063 33.336 8.16796 32.312 7.25063C31.2907 6.33329 30.4453 6.05329 29.616 5.80263C28.7493 5.54396 27.6027 5.45596 26.0427 5.38663C24.687 5.33092 23.33 5.31313 21.9733 5.33329H18.8187C15.896 5.33329 15.3413 5.33329 13.9493 5.39463C12.72 5.45063 11.304 5.52529 10.176 5.86396C9.05066 6.20529 8.16799 6.66663 7.25066 7.68796C6.33332 8.70929 6.05066 9.55463 5.80266 10.3866C5.54132 11.2506 5.45599 12.3973 5.38666 13.96C5.32799 15.2026 5.32799 15.7706 5.33332 17.96ZM20 14C18.4087 14 16.8826 14.6321 15.7573 15.7573C14.6321 16.8825 14 18.4087 14 20C14 21.5913 14.6321 23.1174 15.7573 24.2426C16.8826 25.3678 18.4087 26 20 26C21.5913 26 23.1174 25.3678 24.2426 24.2426C25.3678 23.1174 26 21.5913 26 20C26 18.4087 25.3678 16.8825 24.2426 15.7573C23.1174 14.6321 21.5913 14 20 14ZM11.3333 20C11.3333 17.7014 12.2464 15.497 13.8717 13.8717C15.497 12.2464 17.7014 11.3333 20 11.3333C22.2985 11.3333 24.5029 12.2464 26.1282 13.8717C27.7536 15.497 28.6667 17.7014 28.6667 20C28.6667 22.2985 27.7536 24.5029 26.1282 26.1282C24.5029 27.7535 22.2985 28.6666 20 28.6666C17.7014 28.6666 15.497 27.7535 13.8717 26.1282C12.2464 24.5029 11.3333 22.2985 11.3333 20ZM29.2533 12.7466C29.7838 12.7466 30.2925 12.5359 30.6675 12.1608C31.0426 11.7858 31.2533 11.2771 31.2533 10.7466C31.2533 10.2162 31.0426 9.70749 30.6675 9.33241C30.2925 8.95734 29.7838 8.74663 29.2533 8.74663C28.7229 8.74663 28.2142 8.95734 27.8391 9.33241C27.464 9.70749 27.2533 10.2162 27.2533 10.7466C27.2533 11.2771 27.464 11.7858 27.8391 12.1608C28.2142 12.5359 28.7229 12.7466 29.2533 12.7466Z" fill="black"/>
</svg>
