<svg width="50" height="50" viewBox="0 0 50 50" fill="none" xmlns="http://www.w3.org/2000/svg">
<path d="M11.1607 8.92859H38.8393C40.3217 8.92849 41.7479 9.49565 42.8254 10.5137C43.9029 11.5318 44.55 12.9236 44.6339 14.4036L44.6429 14.7322V35.2679C44.643 36.7503 44.0758 38.1765 43.0577 39.254C42.0397 40.3315 40.6479 40.9786 39.1679 41.0625L38.8393 41.0714H11.1607C9.67833 41.0715 8.2521 40.5044 7.17459 39.4863C6.09709 38.4683 5.45 37.0765 5.36608 35.5964L5.35715 35.2679V14.7322C5.35705 13.2498 5.92421 11.8235 6.94228 10.746C7.96034 9.66853 9.35214 9.02144 10.8321 8.93752L11.1607 8.92859H38.8393H11.1607ZM41.9643 19.4732L25.6179 27.9732C25.4595 28.0555 25.2863 28.1053 25.1085 28.1197C24.9306 28.1342 24.7517 28.1129 24.5821 28.0572L24.3821 27.9732L8.03572 19.4732V35.2679C8.03575 36.0521 8.33067 36.8077 8.86193 37.3846C9.3932 37.9616 10.122 38.3176 10.9036 38.3822L11.1607 38.3929H38.8393C39.6238 38.3928 40.3797 38.0976 40.9566 37.566C41.5336 37.0344 41.8895 36.3052 41.9536 35.5232L41.9643 35.2679V19.4732ZM38.8393 11.6072H11.1607C10.3765 11.6072 9.62087 11.9021 9.04395 12.4334C8.46703 12.9646 8.11097 13.6934 8.04643 14.475L8.03572 14.7322V16.4536L25 25.275L41.9643 16.4536V14.7322C41.9642 13.9476 41.6691 13.1918 41.1374 12.6148C40.6058 12.0379 39.8766 11.682 39.0946 11.6179L38.8393 11.6072Z" fill="black"/>
</svg>
