<svg width="159" height="37" viewBox="0 0 159 37" fill="none" xmlns="http://www.w3.org/2000/svg">
<path d="M2.385 6.82V7.51H11.505V6.82H2.385ZM0.825 11.395V12.085H12.945V11.395H0.825ZM2.385 1.87V7.18H3.195V1.87H2.385ZM24.6888 0.699999V14.08H25.4838V0.699999H24.6888ZM15.4338 10.09V10.78H16.4988C18.7038 10.78 20.7438 10.69 23.3238 10.285L23.2338 9.61C20.6988 10 18.6588 10.09 16.4988 10.09H15.4338ZM15.3888 2.02V2.695H20.6988V5.875H15.4338V10.36H16.2288V6.55H21.4938V2.02H15.3888ZM32.1577 2.5V5.065C32.1577 7.405 30.2227 9.955 28.4827 10.825L28.9627 11.47C30.8377 10.465 32.8327 7.75 32.8327 5.065V2.5H32.1577ZM32.2777 2.5V5.065C32.2777 7.75 34.2727 10.195 36.2077 11.14L36.6877 10.51C34.8877 9.7 32.9527 7.39 32.9527 5.065V2.5H32.2777ZM28.8577 2.125V2.815H36.3127V2.125H28.8577ZM38.4727 0.699999V14.08H39.2527V0.699999H38.4727ZM42.8665 1.975V8.005H48.8815V1.975H42.8665ZM48.1015 2.635V7.33H43.6465V2.635H48.1015ZM51.7015 0.684999V10.525H52.5115V0.684999H51.7015ZM52.2265 4.9V5.575H54.5965V4.9H52.2265ZM44.3665 13.06V13.75H53.1865V13.06H44.3665ZM44.3665 9.61V13.285H45.1615V9.61H44.3665ZM59.3309 7.375V8.05H71.4059V7.375H59.3309ZM64.9859 7.81V14.08H65.7809V7.81H64.9859ZM60.3209 1.705V2.395H64.1009V1.705H60.3209ZM63.8159 1.705V1.9C63.8159 2.71 63.8159 4.705 63.0209 7.57L63.8309 7.69C64.5959 4.705 64.5959 2.65 64.5959 1.9V1.705H63.8159ZM65.6009 1.705V2.395H69.5309V1.705H65.6009ZM69.2309 1.705V2.11C69.2309 3.01 69.2309 4.87 68.6009 7.555L69.3959 7.675C70.0109 4.87 70.0109 2.995 70.0109 2.11V1.705H69.2309ZM78.6947 1.87V2.32C78.6947 4.225 76.0247 5.575 73.9847 5.89L74.2997 6.55C76.6247 6.13 79.4147 4.66 79.4147 2.32V1.87H78.6947ZM78.9497 1.87V2.32C78.9497 4.645 81.7247 6.13 84.0497 6.55L84.3647 5.89C82.3247 5.575 79.6397 4.21 79.6397 2.32V1.87H78.9497ZM74.2397 1.42V2.095H84.1097V1.42H74.2397ZM73.1147 7.705V8.395H85.2347V7.705H73.1147ZM78.8297 8.125V11.365H79.6097V8.125H78.8297ZM74.7347 13.06V13.75H83.8847V13.06H74.7347ZM74.7347 9.985V13.345H75.5297V9.985H74.7347ZM96.9785 0.699999V14.08H97.7585V0.699999H96.9785ZM87.2435 2.95V3.64H95.3135V2.95H87.2435ZM91.3085 4.93C89.4185 4.93 88.0685 6.175 88.0685 7.945C88.0685 9.715 89.4185 10.945 91.3085 10.945C93.1835 10.945 94.5185 9.715 94.5185 7.945C94.5185 6.175 93.1835 4.93 91.3085 4.93ZM91.3085 5.62C92.7185 5.62 93.7685 6.625 93.7685 7.945C93.7685 9.25 92.7185 10.255 91.3085 10.255C89.8835 10.255 88.8335 9.25 88.8335 7.945C88.8335 6.625 89.8835 5.62 91.3085 5.62ZM90.8735 0.805V3.37H91.6685V0.805H90.8735ZM113.968 6.205V6.895H116.503V6.205H113.968ZM113.398 0.699999V14.08H114.193V0.699999H113.398ZM104.638 2.035V10.3H105.433V2.035H104.638ZM104.638 9.925V10.615H105.658C107.713 10.615 109.708 10.465 112.033 10L111.913 9.31C109.678 9.775 107.668 9.925 105.658 9.925H104.638ZM121.377 1.795C119.457 1.795 118.107 3.595 118.107 6.385C118.107 9.175 119.457 10.99 121.377 10.99C123.297 10.99 124.632 9.175 124.632 6.385C124.632 3.595 123.297 1.795 121.377 1.795ZM121.377 2.5C122.847 2.5 123.882 4.105 123.882 6.385C123.882 8.665 122.847 10.285 121.377 10.285C119.892 10.285 118.857 8.665 118.857 6.385C118.857 4.105 119.892 2.5 121.377 2.5ZM127.197 0.699999V14.08H127.992V0.699999H127.197ZM127.797 6.22V6.925H130.332V6.22H127.797ZM140.996 0.699999V14.08H141.791V0.699999H140.996ZM141.566 6.325V7H144.101V6.325H141.566ZM137.636 2.17V2.275C137.636 5.77 135.656 8.875 131.846 10.765L132.281 11.41C136.541 9.28 138.416 5.845 138.416 2.17H137.636ZM132.386 2.17V2.86H138.041V2.17H132.386ZM147.144 4.96V5.65H156.114V4.96H147.144ZM145.419 7.69V8.365H157.554V7.69H145.419ZM147.144 1.195V5.32H147.939V1.195H147.144ZM147.084 13.045V13.735H156.189V13.045H147.084ZM147.084 9.865V13.225H147.879V9.865H147.084ZM10.89 22.715V32.54H11.685V22.715H10.89ZM3.3 35.06V35.75H12.15V35.06H3.3ZM3.3 31.67V35.33H4.08V31.67H3.3ZM4.515 23.45V24.845C4.515 27.11 2.94 29.105 1.08 29.9L1.515 30.545C3.54 29.645 5.19 27.455 5.19 24.845V23.45H4.515ZM4.635 23.45V24.845C4.635 27.365 6.315 29.42 8.34 30.29L8.775 29.645C6.915 28.91 5.31 27.005 5.31 24.845V23.45H4.635ZM24.6888 22.7V29.87H25.4838V22.7H24.6888ZM17.0538 30.59V35.885H25.4838V30.59H24.7038V32.45H17.8338V30.59H17.0538ZM17.8338 33.11H24.7038V35.21H17.8338V33.11ZM18.3888 23.39C16.3938 23.39 14.9838 24.62 14.9838 26.42C14.9838 28.235 16.3938 29.465 18.3888 29.465C20.3688 29.465 21.7788 28.235 21.7788 26.42C21.7788 24.62 20.3688 23.39 18.3888 23.39ZM18.3888 24.08C19.9188 24.08 21.0138 25.07 21.0138 26.42C21.0138 27.77 19.9188 28.775 18.3888 28.775C16.8588 28.775 15.7638 27.77 15.7638 26.42C15.7638 25.07 16.8588 24.08 18.3888 24.08ZM42.0082 22.7V31.01H42.7882V22.7H42.0082ZM39.6982 22.94V30.965H40.4782V22.94H39.6982ZM37.1332 29.39V30.02H40.1782V29.39H37.1332ZM34.9582 28.415V30.995H35.7382V28.415H34.9582ZM31.7782 28.715C33.6682 28.715 36.5782 28.685 38.9332 28.235L38.8732 27.65C36.6082 28.025 33.5632 28.055 31.6582 28.055L31.7782 28.715ZM34.1182 31.535V35.885H42.7882V31.535H42.0082V33.005H34.9132V31.535H34.1182ZM34.9132 33.665H42.0082V35.21H34.9132V33.665ZM35.3332 23.18C33.5932 23.18 32.4382 23.93 32.4382 25.16C32.4382 26.375 33.5932 27.125 35.3332 27.125C37.0732 27.125 38.2282 26.375 38.2282 25.16C38.2282 23.93 37.0732 23.18 35.3332 23.18ZM35.3332 23.78C36.6232 23.78 37.4782 24.335 37.4782 25.16C37.4782 25.955 36.6232 26.51 35.3332 26.51C34.0282 26.51 33.1882 25.955 33.1882 25.16C33.1882 24.335 34.0282 23.78 35.3332 23.78ZM58.8926 22.7V36.08H59.6726V22.7H58.8926ZM49.7426 31.985V32.69H50.7776C53.3576 32.69 55.1426 32.6 57.3176 32.21L57.2126 31.505C55.1126 31.895 53.3276 31.985 50.7776 31.985H49.7426ZM49.7426 24.02V32.24H50.5376V24.725H55.9676V24.02H49.7426ZM66.1214 24.5V27.065C66.1214 29.39 64.2014 31.94 62.4614 32.825L62.9564 33.47C64.8014 32.465 66.7814 29.72 66.7814 27.065V24.5H66.1214ZM66.2414 24.5V27.065C66.2414 29.6 68.0864 32.15 69.9764 33.14L70.4564 32.51C68.6864 31.625 66.8864 29.255 66.8864 27.065V24.5H66.2414ZM62.9114 24.125V24.815H70.0364V24.125H62.9114ZM72.0014 22.7V36.08H72.7964V22.7H72.0014ZM72.6014 28.28V28.985H75.1364V28.28H72.6014ZM86.5052 22.715V32.57H87.3002V22.715H86.5052ZM78.9152 35.06V35.75H87.7652V35.06H78.9152ZM78.9152 31.55V35.225H79.6952V31.55H78.9152ZM80.2052 23.69C78.2402 23.69 76.8002 25.025 76.8002 26.915C76.8002 28.835 78.2402 30.155 80.2052 30.155C82.1552 30.155 83.5952 28.835 83.5952 26.915C83.5952 25.025 82.1552 23.69 80.2052 23.69ZM80.2052 24.395C81.7052 24.395 82.8302 25.475 82.8302 26.915C82.8302 28.37 81.7052 29.45 80.2052 29.45C78.7052 29.45 77.5802 28.37 77.5802 26.915C77.5802 25.475 78.7052 24.395 80.2052 24.395ZM96.5046 35.21C97.8846 35.21 98.9496 34.52 99.8046 33.575C100.81 32.375 101.53 30.875 102.01 29.24H101.17C100.75 30.77 100.09 32.075 99.1896 33.11C98.4546 33.905 97.5696 34.46 96.5946 34.46C95.2596 34.46 94.1796 33.56 94.1796 32.165C94.1796 29.585 99.0096 28.655 99.0096 25.88C99.0096 24.725 98.3346 23.87 97.1046 23.87C95.7396 23.87 94.7946 24.92 94.7946 26.345C94.7946 28.715 97.0446 31.775 99.2946 33.665C100.24 34.46 101.125 34.955 101.905 35.21L102.175 34.445C101.47 34.22 100.66 33.74 99.8196 33.05C97.7796 31.385 95.5746 28.505 95.5746 26.315C95.5746 25.355 96.1446 24.56 97.0896 24.56C97.9296 24.56 98.2446 25.235 98.2446 25.925C98.2446 28.37 93.3096 29.12 93.3096 32.225C93.3096 34.025 94.7046 35.21 96.5046 35.21ZM106.843 24.245V24.935H114.208V24.245H106.843ZM106.498 32.615C108.853 32.615 112.018 32.555 114.733 32.165L114.688 31.55C112.018 31.85 108.793 31.895 106.393 31.91L106.498 32.615ZM108.328 24.755V32.09H109.123V24.755H108.328ZM111.778 24.755V32.09H112.558V24.755H111.778ZM116.608 22.7V36.08H117.403V22.7H116.608ZM113.713 27.845V28.535H117.088V27.845H113.713ZM121.962 22.94V27.32H130.797V22.94H130.002V24.41H122.757V22.94H121.962ZM122.757 25.07H130.002V26.645H122.757V25.07ZM120.327 28.685V29.36H132.402V28.685H120.327ZM121.827 30.845V31.49H130.017V32.945H121.872V35.48H122.652V33.575H130.797V30.845H121.827ZM121.872 35.225V35.9H131.232V35.225H121.872ZM144.191 22.7V36.08H144.986V22.7H144.191ZM134.936 32.09V32.78H136.001C138.206 32.78 140.246 32.69 142.826 32.285L142.736 31.61C140.201 32 138.161 32.09 136.001 32.09H134.936ZM134.891 24.02V24.695H140.201V27.875H134.936V32.36H135.731V28.55H140.996V24.02H134.891ZM158.005 22.7V36.08H158.8V22.7H158.005ZM154.81 25.76V26.45H158.41V25.76H154.81ZM154.81 29.12V29.825H158.41V29.12H154.81ZM151.585 23.93V26.6C151.585 29.03 149.785 31.61 148.015 32.525L148.525 33.17C150.415 32.105 152.245 29.36 152.245 26.6V23.93H151.585ZM151.735 23.93V26.6C151.735 29.285 153.595 31.91 155.515 32.945L155.995 32.285C154.225 31.4 152.395 28.97 152.395 26.6V23.93H151.735Z" fill="white"/>
</svg>
